<svg width="8" height="12" viewBox="0 0 8 12" fill="none" xmlns="http://www.w3.org/2000/svg">
<path d="M1.84 11.68V2.992C1.84 2.40533 1.968 1.888 2.224 1.44C2.49067 0.992 2.85333 0.64 3.312 0.384C3.78133 0.128 4.32 0 4.928 0C5.39733 0 5.79733 0.0799999 6.128 0.24C6.45867 0.4 6.768 0.629333 7.056 0.927999L5.92 2.064C5.792 1.936 5.65333 1.83467 5.504 1.76C5.35467 1.68533 5.16267 1.648 4.928 1.648C4.50133 1.648 4.17067 1.76533 3.936 2C3.712 2.224 3.6 2.54933 3.6 2.976V11.68H1.84ZM0 5.6V4H5.92V5.6H0Z" fill="#111204"/>
</svg>
