<svg width="24" height="24" viewBox="0 0 24 24" fill="none" xmlns="http://www.w3.org/2000/svg">
<path d="M12 23C18.0751 23 23 18.0751 23 12C23 5.92487 18.0751 1 12 1C5.92487 1 1 5.92487 1 12C1 18.0751 5.92487 23 12 23Z" fill="#B9FD50"/>
<path d="M10.8254 18V9.07397C10.8254 8.47123 10.9524 7.93973 11.2063 7.47945C11.4709 7.01918 11.8307 6.65753 12.2857 6.39452C12.7513 6.13151 13.2857 6 13.8889 6C14.3545 6 14.7513 6.08219 15.0794 6.24658C15.4074 6.41096 15.7143 6.64657 16 6.95342L14.873 8.12055C14.746 7.98904 14.6085 7.88493 14.4603 7.80822C14.3122 7.73151 14.1217 7.69315 13.8889 7.69315C13.4656 7.69315 13.1376 7.8137 12.9048 8.05479C12.6825 8.28493 12.5714 8.61918 12.5714 9.05753V18H10.8254ZM9 11.7534V10.1096H14.873V11.7534H9Z" fill="#111204"/>
</svg>
