<svg width="96" height="24" viewBox="0 0 96 24" fill="none" xmlns="http://www.w3.org/2000/svg">
<path d="M13.664 23.0718L4.51197 11.2958L13.376 0.479776H19.584L9.59998 12.2238V10.1758L19.904 23.0718H13.664ZM-2.52724e-05 23.0718V0.479776H5.02397V23.0718H-2.52724e-05ZM22.1145 23.0718V7.51978H27.0105V23.0718H22.1145ZM27.0105 14.5278L24.9625 12.9278C25.3678 11.1144 26.0505 9.70644 27.0105 8.70378C27.9705 7.70111 29.3038 7.19978 31.0105 7.19978C31.7571 7.19978 32.4078 7.31711 32.9625 7.55178C33.5385 7.76511 34.0398 8.10644 34.4665 8.57578L31.5545 12.2558C31.3411 12.0211 31.0745 11.8398 30.7545 11.7118C30.4345 11.5838 30.0718 11.5198 29.6665 11.5198C28.8558 11.5198 28.2051 11.7758 27.7145 12.2878C27.2451 12.7784 27.0105 13.5251 27.0105 14.5278ZM42.8212 23.4238C41.2212 23.4238 39.7706 23.0718 38.4692 22.3678C37.1892 21.6424 36.1759 20.6611 35.4292 19.4238C34.6826 18.1864 34.3092 16.7998 34.3092 15.2638C34.3092 13.7278 34.6826 12.3518 35.4292 11.1358C36.1759 9.91978 37.1892 8.95978 38.4692 8.25578C39.7492 7.53044 41.1999 7.16778 42.8212 7.16778C44.4426 7.16778 45.8932 7.51978 47.1732 8.22378C48.4532 8.92778 49.4666 9.89844 50.2132 11.1358C50.9599 12.3518 51.3332 13.7278 51.3332 15.2638C51.3332 16.7998 50.9599 18.1864 50.2132 19.4238C49.4666 20.6611 48.4532 21.6424 47.1732 22.3678C45.8932 23.0718 44.4426 23.4238 42.8212 23.4238ZM42.8212 18.9758C43.5252 18.9758 44.1439 18.8264 44.6772 18.5278C45.2106 18.2078 45.6159 17.7704 45.8932 17.2158C46.1919 16.6398 46.3412 15.9891 46.3412 15.2638C46.3412 14.5384 46.1919 13.9091 45.8932 13.3758C45.5946 12.8211 45.1786 12.3944 44.6452 12.0958C44.1332 11.7758 43.5252 11.6158 42.8212 11.6158C42.1386 11.6158 41.5306 11.7758 40.9972 12.0958C40.4639 12.3944 40.0479 12.8211 39.7492 13.3758C39.4506 13.9304 39.3012 14.5704 39.3012 15.2958C39.3012 15.9998 39.4506 16.6398 39.7492 17.2158C40.0479 17.7704 40.4639 18.2078 40.9972 18.5278C41.5306 18.8264 42.1386 18.9758 42.8212 18.9758Z" fill="white"/>
<path d="M64.0427 23.0718V14.2078C64.0427 13.3971 63.7867 12.7464 63.2747 12.2558C62.7841 11.7438 62.1547 11.4878 61.3867 11.4878C60.8534 11.4878 60.3841 11.6051 59.9787 11.8398C59.5734 12.0531 59.2534 12.3731 59.0187 12.7998C58.7841 13.2051 58.6667 13.6744 58.6667 14.2078L56.7787 13.2798C56.7787 12.0638 57.0454 10.9971 57.5787 10.0798C58.1121 9.16244 58.8481 8.45844 59.7867 7.96778C60.7467 7.45578 61.8241 7.19978 63.0187 7.19978C64.1707 7.19978 65.1841 7.47711 66.0587 8.03178C66.9547 8.56511 67.6587 9.27978 68.1707 10.1758C68.6827 11.0718 68.9387 12.0531 68.9387 13.1198V23.0718H64.0427ZM53.7707 23.0718V7.51978H58.6667V23.0718H53.7707ZM72.0832 23.0718V7.51978H76.9792V23.0718H72.0832ZM74.5472 5.37578C73.7792 5.37578 73.1392 5.11978 72.6272 4.60778C72.1366 4.07444 71.8912 3.43444 71.8912 2.68778C71.8912 1.91978 72.1366 1.27978 72.6272 0.767776C73.1392 0.255777 73.7792 -0.00022316 74.5472 -0.00022316C75.3152 -0.00022316 75.9446 0.255777 76.4352 0.767776C76.9259 1.27978 77.1712 1.91978 77.1712 2.68778C77.1712 3.43444 76.9259 4.07444 76.4352 4.60778C75.9446 5.11978 75.3152 5.37578 74.5472 5.37578ZM90.059 23.0718L86.315 17.0238L85.259 16.3518L79.147 7.51978H84.875L88.363 13.1838L89.387 13.8238L95.723 23.0718H90.059ZM78.859 23.0718L85.227 14.0158L88.011 17.1518L84.203 23.0718H78.859ZM89.355 16.3198L86.571 13.1838L90.091 7.51978H95.403L89.355 16.3198Z" fill="#B9FD50"/>
</svg>
